<svg xmlns="http://www.w3.org/2000/svg" viewBox="0 0 158.52 80.58"><defs><style>.cls-1{fill:#00bce4;}.cls-2{fill:#009ddc;}.cls-3{fill:#fff;}</style></defs><title>umalat-mainlogo</title><g id="Layer_2" data-name="Layer 2"><g id="Слой_1" data-name="Слой 1"><path class="cls-1" d="M158.52,11.58c0,6.39-5.48,11.57-14.77,11.57-10.37,0-64.48-11.57-64.48-11.57S25.14,0,14.76,0C6.25,0,0,5.18,0,11.58V62.35C0,69.8,6.12,72.57,14.36,74.72c10,2.59,36.38,5.86,64.9,5.86s55-3.27,64.9-5.86c8.24-2.15,14.36-4.92,14.36-12.37Z"/><path class="cls-2" d="M79.27,11.58s54.11,11.57,64.48,11.57c9.29,0,14.77-5.18,14.77-11.57S153,0,143.75,0C133.38,0,79.27,11.58,79.27,11.58Z"/><path class="cls-3" d="M102,56.59a2.38,2.38,0,0,1-2.07-2.39V32.86a1.06,1.06,0,0,0-1-1.06H96.71a1.05,1.05,0,0,0-1,1.06V53.21a5.5,5.5,0,0,0,6,5.88A1.24,1.24,0,0,0,103,58C103,57.28,102.94,56.86,102,56.59Z"/><path class="cls-3" d="M134,55.82a5.5,5.5,0,0,1-2,.5A2,2,0,0,1,129.81,54V43.41h3.35a.92.92,0,0,0,1-.9v-1a.91.91,0,0,0-1-.88h-3.35V36.9a1.05,1.05,0,0,0-1-1.06h-2.25a1,1,0,0,0-1,1.06v3.74h-2.07a.91.91,0,0,0-1,.88v1a.92.92,0,0,0,1,.9h2.07V54c0,4.1,2.42,5.13,5,5.13s4.23-1.21,4.23-1.61C134.84,56.55,134.35,55.82,134,55.82Z"/><path class="cls-3" d="M43.44,32.58H41.2a1.05,1.05,0,0,0-1,1.06V49.31c0,1.23-.13,6.53-6.17,6.53s-6.17-5.3-6.17-6.53V33.64a1.05,1.05,0,0,0-1-1.06H24.66a1.05,1.05,0,0,0-1,1.06v16.1c0,5.36,3.33,9.54,10.37,9.54s10.37-4.18,10.37-9.54V33.64A1.05,1.05,0,0,0,43.44,32.58Z"/><path class="cls-3" d="M68.26,40.21a7.2,7.2,0,0,0-5.89,3.32,5.12,5.12,0,0,0-5.07-3.32,6.56,6.56,0,0,0-5.38,2.86V42a1.3,1.3,0,0,0-1.41-1.42H48.7a1,1,0,0,0-1,1v16.1a1.06,1.06,0,0,0,1,1.07H51a1.05,1.05,0,0,0,1-1.07V46.47c.65-1.4,1.87-3.07,4-3.07s2.91,1.44,2.91,3.37V57.63a1.06,1.06,0,0,0,1,1.07h2.25a1.06,1.06,0,0,0,1-1.07V46.88c0-.19,0-.4,0-.62a4.51,4.51,0,0,1,3.87-2.86c2,0,2.91,1.44,2.91,3.37V57.63a1.06,1.06,0,0,0,1,1.07H73a1.06,1.06,0,0,0,1-1.07V46.88C74,44.58,73,40.21,68.26,40.21Z"/><path class="cls-3" d="M85.49,40.21C80.64,40.21,78,43.44,78,44s.54,1.68,1.53,1.68c1.21,0,2.12-2.32,5.3-2.32,2.64,0,3.62,1.52,3.62,3.45v.67c-.86-.07-1.81-.12-2.69-.12-2.84,0-8.94.77-8.94,6.12,0,3.8,2.82,5.65,6.12,5.65a7.06,7.06,0,0,0,5.51-2.79v1.33a1.06,1.06,0,0,0,1,1.07h2.24a1.05,1.05,0,0,0,1-1.07V46.22C92.65,43.44,90.63,40.21,85.49,40.21Zm-1,16.08c-1.56,0-3.28-.52-3.28-2.83S82.81,50,85.52,50c1.52,0,2.41,0,2.94.07v3C87.71,54.66,86.46,56.29,84.48,56.29Z"/><path class="cls-3" d="M113.69,40.21c-4.85,0-7.48,3.23-7.48,3.75s.54,1.68,1.53,1.68c1.21,0,2.11-2.32,5.3-2.32,2.63,0,3.61,1.52,3.61,3.45v.67c-.85-.07-1.8-.12-2.68-.12-2.85,0-9,.77-9,6.12,0,3.8,2.82,5.65,6.13,5.65a7,7,0,0,0,5.5-2.79v1.33a1.06,1.06,0,0,0,1,1.07h2.24a1.06,1.06,0,0,0,1-1.07V46.22C120.85,43.44,118.82,40.21,113.69,40.21Zm-1,16.08c-1.56,0-3.28-.52-3.28-2.83S111,50,113.71,50c1.53,0,2.42,0,2.94.07v3C115.9,54.66,114.66,56.29,112.68,56.29Z"/><path class="cls-3" d="M137.36,38.73a3.47,3.47,0,1,1,3.47-3.46A3.46,3.46,0,0,1,137.36,38.73Zm0-6.53a3.07,3.07,0,1,0,3.07,3.07A3.06,3.06,0,0,0,137.36,32.2Z"/><path class="cls-3" d="M138.6,36.94a.14.14,0,0,1-.06.12.17.17,0,0,1-.14,0,.26.26,0,0,1-.21-.1l-1.4-1.53v1.39a.26.26,0,0,1-.06.18.21.21,0,0,1-.16.06.24.24,0,0,1-.17-.06.26.26,0,0,1-.06-.18v-3.2a.24.24,0,0,1,.06-.18.21.21,0,0,1,.18-.07h.84a1.2,1.2,0,0,1,.42.07,1.27,1.27,0,0,1,.36.2.89.89,0,0,1,.34.72,1.16,1.16,0,0,1-.08.47.81.81,0,0,1-.21.32,1,1,0,0,1-.32.18,1.51,1.51,0,0,1-.39.07h-.19l1.17,1.28A.31.31,0,0,1,138.6,36.94Zm-.51-2.5a.58.58,0,0,0-.19-.45.7.7,0,0,0-.5-.18h-.61v1.3h.62a.7.7,0,0,0,.52-.16A.69.69,0,0,0,138.09,34.44Z"/></g></g></svg>