<svg id="Layer_1" enable-background="new 0 0 510.584 510.584" height="512" viewBox="0 0 510.584 510.584" width="512" xmlns="http://www.w3.org/2000/svg"><path d="m490.639 188.062h-472.087c-11.525 0-19.285 11.856-14.655 22.422l41.928 95.674c5.508 12.569 11.395 58.125 17.34 74.874 32.521 91.62 327.808 92.271 368.205 4.034 5.581-12.191 10.766-29.725 16.255-48.288 15.535-52.535 11.121-39.452 57.111-125.15 5.699-10.615-1.975-23.566-14.097-23.566z" fill="#e0c8bf"/><path d="m430.333 107.757c-97.25-39.045-252.795-39.059-350.081 0-107.137 43.015-106.869 122.557 0 165.464 97.25 39.045 252.795 39.059 350.081 0 107.148-43.019 106.855-122.563 0-165.464z" fill="#a2d0f9"/><path d="m308.849 363.231c-95.159-33.735-109.433-41.203-197.454 7.566-16.648 9.224-32.743 12.252-47.898 11.105 24.87 66.018 195.259 87.284 300.111 51.859 35.188-11.888 58.621-28.727 67.763-48.695.777-1.697 1.545-3.507 2.309-5.399-41.914.419-87.643-3.252-124.831-16.436z" fill="#dfb7a4"/><path d="m430.333 107.757c-97.25-39.045-252.795-39.059-350.081 0-107.137 43.015-106.869 122.557 0 165.464 97.25 39.045 252.795 39.059 350.081 0 107.148-43.019 106.855-122.563 0-165.464z" fill="#eaeaea"/><path d="m430.333 107.757c-153.972-61.818-430.154-21.732-430.154 82.731 0 9.526 2.443 18.772 7.163 27.61 28.226 10.554 66.178 12.898 117.138-1.231 178.423-49.471 203.783-33.959 275.961 0 21.163 9.957 48.324 20.872 76.145 31.027 51.698-39.453 49.819-101.566-46.253-140.137z" fill="#e0e0e0"/><path d="m433.68 157.247c16.026-8.594 28.78-17.779 38.874-27.133-85.552-60.638-286.766-69.073-400.522-18.888 27.335 26.821 75.047 56.258 147.606 29.014 117.759-44.213 117.628 68.712 214.042 17.007z" fill="#eaeaea"/><path d="m457.96 193.045c-8.318-26.356-27.1-40.203-53.401-39.775-19.915-21.436-77.43-42.024-70.482-74.037 1.658-7.64-2.447-15.359-9.709-18.255s-15.553-.122-19.607 6.563c-20.887 34.435-71.692 46.384-112.514 55.984-20.155 4.737-37.31 8.082-54.068 23.675-34.039-2.703-59.475 12.386-73.868 44.037-3.658 8.044-.103 17.529 7.941 21.188 8.026 3.649 17.522.122 21.188-7.941 6.391-14.054 15.241-22.085 27.636-24.673-2.972 41.78 53.035 56.438 95.503 56.438 8.575 0 15.674-6.797 15.98-15.435.312-8.831-6.594-16.243-15.425-16.556-45.606-1.612-63.342-13.431-64.136-20.981-.733-6.966 10.519-19.752 30.509-24.749 35.983-8.999 88.586-18.073 124.522-47.167 17.657 33.685 68.317 54.615 74.211 65.096 1.638 3.719 1.871 6.415.693 8.014-.333.452-8.594 11.012-47.521 6.453-8.773-1.028-16.725 5.255-17.751 14.032-1.027 8.776 5.255 16.724 14.032 17.751 47.801 5.59 68.259-7.385 77.005-19.258 3.699-5.022 5.926-10.649 6.69-16.641 5.716 2.371 9.399 7.455 12.055 15.868 2.154 6.824 8.458 11.188 15.253 11.188 10.831 0 18.511-10.532 15.264-20.819z" fill="#d3d1d1"/></svg>